<svg width="160" height="160" viewBox="0 0 160 160" fill="none" xmlns="http://www.w3.org/2000/svg">
<rect width="160" height="160" fill="#E02C52"/>
<path d="M29.8568 69.688C29.0248 69.688 28.3528 69.3893 27.8408 68.792C27.3288 68.1733 27.1474 67.448 27.2968 66.616C27.4248 65.8053 27.8301 65.1013 28.5128 64.504C29.1954 63.8853 29.9741 63.576 30.8488 63.576C31.7021 63.576 32.3741 63.8747 32.8648 64.472C33.3768 65.0693 33.5581 65.784 33.4088 66.616C33.2808 67.4693 32.8754 68.1947 32.1927 68.792C31.5101 69.3893 30.7314 69.688 29.8568 69.688ZM24.0968 87L26.9128 71H32.2248L29.4088 87H24.0968ZM38.97 87.448C35.4287 87.448 33.082 86.136 31.93 83.512L36.602 81.24C37.0713 82.456 37.9567 83.064 39.258 83.064C40.1967 83.064 40.7087 82.808 40.794 82.296C40.858 81.976 40.6233 81.7093 40.09 81.496C39.578 81.2613 38.938 81.0373 38.17 80.824C37.4233 80.6107 36.6873 80.3333 35.962 79.992C35.2367 79.6293 34.6607 79.064 34.234 78.296C33.8287 77.5067 33.722 76.536 33.914 75.384C34.1913 73.784 35.002 72.5787 36.346 71.768C37.69 70.9573 39.1727 70.552 40.794 70.552C42.266 70.552 43.5567 70.8613 44.666 71.48C45.7967 72.0773 46.618 72.952 47.13 74.104L42.618 76.28C42.234 75.32 41.5727 74.8293 40.634 74.808C39.8233 74.7653 39.354 75.0533 39.226 75.672C39.162 76.0133 39.3113 76.3013 39.674 76.536C40.0367 76.7493 40.506 76.9093 41.082 77.016C41.658 77.1227 42.2767 77.304 42.938 77.56C43.5993 77.7947 44.1967 78.0827 44.73 78.424C45.2847 78.7653 45.69 79.3093 45.946 80.056C46.2233 80.7813 46.2767 81.656 46.106 82.68C45.8073 84.3227 44.9967 85.528 43.674 86.296C42.3513 87.064 40.7833 87.448 38.97 87.448ZM60.015 70.552C61.743 70.552 63.0657 71.16 63.983 72.376C64.9217 73.5707 65.2097 75.256 64.847 77.432L63.151 87H57.839L59.407 78.104C59.535 77.2507 59.4177 76.6213 59.055 76.216C58.6923 75.7893 58.1483 75.576 57.423 75.576C56.6123 75.576 55.9297 75.8213 55.375 76.312C54.8417 76.8027 54.4897 77.528 54.319 78.488V78.456L52.815 87H47.503L51.439 64.6H56.751L55.343 72.632C56.559 71.2453 58.1163 70.552 60.015 70.552ZM74.515 76.088L73.715 80.728C73.587 81.4533 73.7577 81.9013 74.227 82.072C74.6963 82.2427 75.5497 82.2853 76.787 82.2L75.955 87C72.947 87.4053 70.8243 87.1067 69.587 86.104C68.3497 85.08 67.9443 83.3307 68.371 80.856L69.203 76.088H66.803L67.699 71H70.099L70.611 68.12L76.211 66.52L75.411 71H78.771L77.843 76.088H74.515ZM92.2088 71H97.5208L94.7048 87H89.3928L89.6168 85.752C88.3794 86.8827 86.8221 87.448 84.9448 87.448C82.6621 87.448 80.9661 86.584 79.8568 84.856C78.7688 83.128 78.4168 81.1013 78.8008 78.776C79.1634 76.5147 80.1234 74.584 81.6808 72.984C83.2381 71.3627 85.1688 70.552 87.4728 70.552C89.5208 70.552 90.9928 71.288 91.8888 72.76L92.2088 71ZM84.5928 81.528C85.0834 82.168 85.8301 82.488 86.8328 82.488C87.8354 82.488 88.6994 82.1787 89.4248 81.56C90.1501 80.9413 90.6088 80.12 90.8008 79.096V79C90.9714 77.9547 90.8114 77.112 90.3208 76.472C89.8301 75.832 89.0728 75.512 88.0488 75.512C87.0461 75.512 86.1821 75.832 85.4568 76.472C84.7314 77.112 84.2834 77.9547 84.1128 79C83.9421 80.0453 84.1021 80.888 84.5928 81.528ZM110.232 70.552C112.43 70.552 114.115 71.4267 115.288 73.176C116.483 74.904 116.888 76.952 116.504 79.32C116.12 81.624 115.16 83.5547 113.624 85.112C112.11 86.6693 110.232 87.448 107.992 87.448C105.902 87.448 104.376 86.6907 103.416 85.176L101.976 93.4H96.6642L100.6 71H105.912L105.688 72.312C106.904 71.1387 108.419 70.552 110.232 70.552ZM111.192 79C111.384 77.9333 111.235 77.0907 110.744 76.472C110.254 75.832 109.507 75.512 108.504 75.512C107.523 75.512 106.67 75.8213 105.944 76.44C105.219 77.0373 104.75 77.848 104.536 78.872L104.472 79.096C104.323 80.12 104.504 80.9413 105.016 81.56C105.528 82.1787 106.275 82.488 107.256 82.488C108.259 82.488 109.123 82.1787 109.848 81.56C110.574 80.92 111.022 80.0667 111.192 79ZM129.92 70.552C132.117 70.552 133.802 71.4267 134.976 73.176C136.17 74.904 136.576 76.952 136.192 79.32C135.808 81.624 134.848 83.5547 133.312 85.112C131.797 86.6693 129.92 87.448 127.68 87.448C125.589 87.448 124.064 86.6907 123.104 85.176L121.664 93.4H116.352L120.288 71H125.6L125.376 72.312C126.592 71.1387 128.106 70.552 129.92 70.552ZM130.88 79C131.072 77.9333 130.922 77.0907 130.432 76.472C129.941 75.832 129.194 75.512 128.192 75.512C127.21 75.512 126.357 75.8213 125.632 76.44C124.906 77.0373 124.437 77.848 124.224 78.872L124.16 79.096C124.01 80.12 124.192 80.9413 124.704 81.56C125.216 82.1787 125.962 82.488 126.944 82.488C127.946 82.488 128.81 82.1787 129.536 81.56C130.261 80.92 130.709 80.0667 130.88 79Z" fill="white"/>
</svg>
