<svg height="512pt" viewBox="-43 0 512 512" width="512pt" xmlns="http://www.w3.org/2000/svg"><path d="m418.074219 116.035156c-4.199219 0-7.601563 3.402344-7.601563 7.601563v347.453125c0 14.171875-11.535156 25.703125-25.710937 25.703125h-236.605469c-4.199219 0-7.605469 3.402343-7.605469 7.601562s3.40625 7.605469 7.605469 7.605469h236.601562c22.566407 0 40.921876-18.351562 40.921876-40.910156v-347.453125c0-4.199219-3.40625-7.601563-7.605469-7.601563zm0 0"/><path d="m384.757812 0h-310.160156c-22.554687 0-40.90625 18.351562-40.90625 40.910156v11.613282h-6.269531c-15.121094 0-27.421875 12.304687-27.421875 27.421874 0 15.121094 12.300781 27.421876 27.421875 27.421876h6.269531v15.578124h-6.269531c-15.121094 0-27.421875 12.300782-27.421875 27.421876 0 15.121093 12.300781 27.421874 27.421875 27.421874h6.269531v15.578126h-6.269531c-15.121094 0-27.421875 12.300781-27.421875 27.421874 0 15.121094 12.300781 27.421876 27.421875 27.421876h6.269531v15.578124h-6.269531c-15.121094 0-27.421875 12.300782-27.421875 27.421876 0 15.121093 12.300781 27.421874 27.421875 27.421874h6.269531v15.578126h-6.269531c-15.121094 0-27.421875 12.300781-27.421875 27.421874 0 15.117188 12.300781 27.421876 27.421875 27.421876h6.269531v15.578124h-6.269531c-15.121094 0-27.421875 12.300782-27.421875 27.421876 0 15.117187 12.300781 27.421874 27.421875 27.421874h6.269531v11.613282c0 22.554687 18.351563 40.90625 40.910156 40.90625h43.136719c4.203125 0 7.605469-3.402344 7.605469-7.601563s-3.402344-7.605469-7.605469-7.605469h-43.140625c-14.171875 0-25.699218-11.527343-25.699218-25.699218v-11.613282h10.234374c15.121094 0 27.421876-12.304687 27.421876-27.421874 0-15.121094-12.300782-27.421876-27.421876-27.421876h-10.234374v-15.578124h10.234374c15.121094 0 27.421876-12.304688 27.421876-27.421876 0-15.121093-12.300782-27.421874-27.421876-27.421874h-10.234374v-15.578126h10.234374c15.121094 0 27.421876-12.300781 27.421876-27.421874 0-15.121094-12.300782-27.421876-27.421876-27.421876h-10.234374v-15.578124h10.234374c15.121094 0 27.421876-12.300782 27.421876-27.421876 0-15.121093-12.300782-27.421874-27.421876-27.421874h-10.234374v-15.578126h10.234374c15.121094 0 27.421876-12.300781 27.421876-27.421874 0-15.117188-12.300782-27.421876-27.421876-27.421876h-10.234374v-15.574218h10.234374c15.121094 0 27.421876-12.300782 27.421876-27.421875 0-15.121094-12.300782-27.421875-27.421876-27.421875h-10.234374v-11.617188c0-14.171875 11.53125-25.703125 25.703124-25.703125h310.160157c14.175781 0 25.710937 11.53125 25.710937 25.703125v52.308594c0 4.199219 3.402344 7.605469 7.601563 7.605469 4.203125 0 7.605469-3.40625 7.605469-7.605469v-52.308594c0-22.558594-18.355469-40.910156-40.921876-40.910156zm-313.410156 432.054688c0 6.734374-5.480468 12.214843-12.214844 12.214843h-31.710937c-6.734375 0-12.214844-5.480469-12.214844-12.214843 0-6.734376 5.480469-12.214844 12.214844-12.214844h31.710937c6.734376 0 12.214844 5.480468 12.214844 12.214844zm0-70.421876c0 6.734376-5.480468 12.214844-12.214844 12.214844h-31.710937c-6.734375 0-12.214844-5.480468-12.214844-12.214844 0-6.734374 5.480469-12.214843 12.214844-12.214843h31.710937c6.734376 0 12.214844 5.480469 12.214844 12.214843zm0-70.421874c0 6.734374-5.480468 12.214843-12.214844 12.214843h-31.710937c-6.734375 0-12.214844-5.480469-12.214844-12.214843 0-6.734376 5.480469-12.214844 12.214844-12.214844h31.710937c6.734376 0 12.214844 5.480468 12.214844 12.214844zm0-70.421876c0 6.738282-5.480468 12.214844-12.214844 12.214844h-31.710937c-6.734375 0-12.214844-5.476562-12.214844-12.214844 0-6.734374 5.480469-12.214843 12.214844-12.214843h31.710937c6.734376 0 12.214844 5.480469 12.214844 12.214843zm0-70.421874c0 6.738281-5.480468 12.214843-12.214844 12.214843h-17.828124c-.003907 0-.007813 0-.011719 0-.003907 0-.003907 0-.007813 0h-13.863281c-6.734375 0-12.214844-5.476562-12.214844-12.214843 0-6.734376 5.480469-12.210938 12.214844-12.210938h13.785156c.027344 0 .058594.003906.085938.003906.03125 0 .058593-.003906.089843-.003906h17.75c6.734376 0 12.214844 5.476562 12.214844 12.210938zm0-70.421876c0 6.738282-5.480468 12.214844-12.214844 12.214844h-17.800781c-.011719 0-.023437 0-.039062 0-.011719 0-.027344 0-.039063 0h-13.832031c-6.734375 0-12.214844-5.476562-12.214844-12.214844 0-6.734374 5.480469-12.210937 12.214844-12.210937h13.8125.058594.058593 17.78125c6.734376 0 12.214844 5.476563 12.214844 12.210937zm0 0"/><path d="m225.476562 197.980469c9.039063-9.828125 8.722657-24.925781-.71875-34.371094l-35.644531-35.644531c-5.1875-5.183594-12.34375-7.804688-19.65625-7.1875-7.304687.621094-13.925781 4.40625-18.164062 10.386718l-23.039063 32.507813c-16.269531 22.960937-15.289062 54.3125 2.386719 76.246094 38 47.148437 81.175781 90.324219 128.328125 128.324219 11.511719 9.273437 25.613281 13.953124 39.738281 13.953124 12.789063 0 25.59375-3.835937 36.507813-11.5625l32.507812-23.039062c5.980469-4.238281 9.765625-10.859375 10.386719-18.167969.617187-7.304687-2.003906-14.46875-7.1875-19.652343l-35.644531-35.644532c-9.445313-9.445312-24.542969-9.761718-34.371094-.71875l-21.691406 19.949219c-1.753906 1.613281-4.398438 1.769531-6.296875.378906-25.972657-19-48.773438-41.800781-67.773438-67.769531-1.390625-1.898438-1.230469-4.546875.378907-6.296875zm-54.734374-62.046875c.273437-.023438.542968-.035156.816406-.035156 2.542968 0 4.984375 1.003906 6.800781 2.820312l35.644531 35.644531c3.660156 3.660157 3.78125 9.511719.277344 13.324219l-6.457031 7.019531-48.53125-48.53125 4.40625-6.21875c1.644531-2.316406 4.210937-3.785156 7.042969-4.023437zm153.777343 148.949218 35.648438 35.644532c2.007812 2.011718 3.023437 4.789062 2.785156 7.617187-.238281 2.832031-1.707031 5.398438-4.027344 7.042969l-6.214843 4.40625-48.535157-48.53125 7.023438-6.460938c3.8125-3.503906 9.664062-3.378906 13.320312.28125zm-60.582031 21.132813c7.738281 5.664063 18.492188 5.050781 25.570312-1.460937l3.46875-3.1875 47.148438 47.148437-13.703125 9.707031c-17.4375 12.355469-41.25 11.605469-57.90625-1.820312-46.3125-37.320313-88.714844-79.722656-126.03125-126.027344-13.429687-16.664062-14.175781-40.472656-1.820313-57.910156l9.707032-13.699219 47.148437 47.144531-3.191406 3.46875c-6.507813 7.078125-7.121094 17.832032-1.457031 25.570313 19.921875 27.230469 43.832031 51.140625 71.066406 71.066406zm0 0"/></svg>